<mxfile host="app.diagrams.net" modified="2024-07-01T08:26:52.903Z" agent="Mozilla/5.0 (Windows NT 10.0; Win64; x64) AppleWebKit/537.36 (KHTML, like Gecko) Chrome/126.0.0.0 Safari/537.36 Edg/126.0.0.0" etag="BCkd6CUuR6xcNBgCMAX2" version="24.5.5" type="github" pages="2">
  <diagram id="C5RBs43oDa-KdzZeNtuy" name="Page-1">
    <mxGraphModel dx="695" dy="493" grid="1" gridSize="10" guides="1" tooltips="1" connect="1" arrows="1" fold="1" page="1" pageScale="1" pageWidth="827" pageHeight="1169" math="0" shadow="0">
      <root>
        <mxCell id="WIyWlLk6GJQsqaUBKTNV-0" />
        <mxCell id="WIyWlLk6GJQsqaUBKTNV-1" parent="WIyWlLk6GJQsqaUBKTNV-0" />
        <mxCell id="r62edw3LymITYhODbOyO-1" value="TUMOUR&lt;br&gt;SAMPLE" style="edgeStyle=orthogonalEdgeStyle;rounded=1;orthogonalLoop=1;jettySize=auto;html=1;exitX=0;exitY=0.5;exitDx=0;exitDy=0;entryX=1;entryY=0.5;entryDx=0;entryDy=0;endArrow=none;fontSize=13;startArrow=classic;startFill=1;endFill=0;fontStyle=1;strokeWidth=2;entryPerimeter=0;" parent="WIyWlLk6GJQsqaUBKTNV-1" source="r62edw3LymITYhODbOyO-2" target="r62edw3LymITYhODbOyO-19" edge="1">
          <mxGeometry relative="1" as="geometry">
            <mxPoint x="360" y="110" as="sourcePoint" />
            <mxPoint x="280" y="100" as="targetPoint" />
          </mxGeometry>
        </mxCell>
        <mxCell id="WIyWlLk6GJQsqaUBKTNV-8" value="No" style="rounded=1;html=1;jettySize=auto;orthogonalLoop=1;fontSize=13;endArrow=none;endFill=0;endSize=8;strokeWidth=2;shadow=0;labelBackgroundColor=default;edgeStyle=orthogonalEdgeStyle;startArrow=classic;startFill=1;fontStyle=1;entryX=0.5;entryY=1;entryDx=0;entryDy=0;entryPerimeter=0;" parent="WIyWlLk6GJQsqaUBKTNV-1" source="WIyWlLk6GJQsqaUBKTNV-11" target="r62edw3LymITYhODbOyO-4" edge="1">
          <mxGeometry x="0.3333" y="20" relative="1" as="geometry">
            <mxPoint as="offset" />
          </mxGeometry>
        </mxCell>
        <mxCell id="r62edw3LymITYhODbOyO-14" style="edgeStyle=orthogonalEdgeStyle;rounded=1;orthogonalLoop=1;jettySize=auto;html=1;endArrow=none;fontSize=13;startArrow=classic;startFill=1;endFill=0;fontStyle=1;strokeWidth=2;exitX=1;exitY=0.5;exitDx=0;exitDy=0;" parent="WIyWlLk6GJQsqaUBKTNV-1" source="r62edw3LymITYhODbOyO-10" target="WIyWlLk6GJQsqaUBKTNV-11" edge="1">
          <mxGeometry relative="1" as="geometry" />
        </mxCell>
        <mxCell id="WIyWlLk6GJQsqaUBKTNV-11" value="Complete Pathology analysis" style="rounded=1;whiteSpace=wrap;html=1;fontSize=12;glass=0;strokeWidth=2;shadow=0;arcSize=14;" parent="WIyWlLk6GJQsqaUBKTNV-1" vertex="1">
          <mxGeometry x="340" y="430" width="120" height="40" as="geometry" />
        </mxCell>
        <mxCell id="r62edw3LymITYhODbOyO-5" style="edgeStyle=orthogonalEdgeStyle;rounded=1;orthogonalLoop=1;jettySize=auto;html=1;endArrow=none;fontSize=13;endFill=0;endSize=8;strokeWidth=2;shadow=0;startArrow=classic;startFill=1;fontStyle=1;exitX=0;exitY=0.5;exitDx=0;exitDy=0;exitPerimeter=0;" parent="WIyWlLk6GJQsqaUBKTNV-1" source="r62edw3LymITYhODbOyO-4" target="r62edw3LymITYhODbOyO-2" edge="1">
          <mxGeometry relative="1" as="geometry" />
        </mxCell>
        <mxCell id="r62edw3LymITYhODbOyO-2" value="Lab analyses sample (histopathology, ICC, molecular etc)" style="rounded=1;whiteSpace=wrap;html=1;absoluteArcSize=1;arcSize=14;strokeWidth=2;" parent="WIyWlLk6GJQsqaUBKTNV-1" vertex="1">
          <mxGeometry x="210" y="260" width="100" height="100" as="geometry" />
        </mxCell>
        <mxCell id="r62edw3LymITYhODbOyO-4" value="Suitable for genomic analysis?" style="strokeWidth=2;html=1;shape=mxgraph.flowchart.decision;whiteSpace=wrap;rounded=1;arcSize=14;" parent="WIyWlLk6GJQsqaUBKTNV-1" vertex="1">
          <mxGeometry x="350" y="260" width="100" height="100" as="geometry" />
        </mxCell>
        <mxCell id="r62edw3LymITYhODbOyO-6" value="Yes" style="edgeStyle=orthogonalEdgeStyle;rounded=1;html=1;jettySize=auto;orthogonalLoop=1;fontSize=13;endArrow=none;endFill=0;endSize=8;strokeWidth=2;shadow=0;labelBackgroundColor=default;exitX=0;exitY=0.5;exitDx=0;exitDy=0;entryX=1;entryY=0.5;entryDx=0;entryDy=0;startArrow=classic;startFill=1;fontStyle=1;entryPerimeter=0;" parent="WIyWlLk6GJQsqaUBKTNV-1" source="r62edw3LymITYhODbOyO-7" target="r62edw3LymITYhODbOyO-4" edge="1">
          <mxGeometry y="10" relative="1" as="geometry">
            <mxPoint as="offset" />
            <mxPoint x="740" y="331" as="sourcePoint" />
            <mxPoint x="690" y="330" as="targetPoint" />
            <Array as="points" />
          </mxGeometry>
        </mxCell>
        <mxCell id="r62edw3LymITYhODbOyO-9" style="edgeStyle=orthogonalEdgeStyle;rounded=1;orthogonalLoop=1;jettySize=auto;html=1;entryX=0.5;entryY=0;entryDx=0;entryDy=0;entryPerimeter=0;" parent="WIyWlLk6GJQsqaUBKTNV-1" source="r62edw3LymITYhODbOyO-7" target="r62edw3LymITYhODbOyO-8" edge="1">
          <mxGeometry relative="1" as="geometry" />
        </mxCell>
        <mxCell id="r62edw3LymITYhODbOyO-7" value="Molecular pathology analysis" style="rounded=1;whiteSpace=wrap;html=1;absoluteArcSize=1;arcSize=14;strokeWidth=2;" parent="WIyWlLk6GJQsqaUBKTNV-1" vertex="1">
          <mxGeometry x="500" y="260" width="100" height="100" as="geometry" />
        </mxCell>
        <mxCell id="r62edw3LymITYhODbOyO-15" value="Yes / No&lt;br&gt;(immediate treatment pathway" style="edgeStyle=orthogonalEdgeStyle;rounded=1;orthogonalLoop=1;jettySize=auto;html=1;entryX=0.5;entryY=1;entryDx=0;entryDy=0;exitX=0.5;exitY=1;exitDx=0;exitDy=0;endArrow=none;fontSize=13;startArrow=classic;startFill=1;endFill=0;fontStyle=1;strokeWidth=2;entryPerimeter=0;" parent="WIyWlLk6GJQsqaUBKTNV-1" source="r62edw3LymITYhODbOyO-10" target="r62edw3LymITYhODbOyO-8" edge="1">
          <mxGeometry relative="1" as="geometry">
            <Array as="points">
              <mxPoint x="260" y="580" />
              <mxPoint x="550" y="580" />
            </Array>
          </mxGeometry>
        </mxCell>
        <mxCell id="r62edw3LymITYhODbOyO-45" value="YES" style="edgeStyle=orthogonalEdgeStyle;shape=connector;rounded=1;orthogonalLoop=1;jettySize=auto;html=1;labelBackgroundColor=default;strokeColor=#00CC00;fontFamily=Helvetica;fontSize=14;fontColor=default;endArrow=classic;strokeWidth=3;fontStyle=1;entryX=0.5;entryY=0;entryDx=0;entryDy=0;" parent="WIyWlLk6GJQsqaUBKTNV-1" source="r62edw3LymITYhODbOyO-8" target="PiFhAG2NzzCI8QwvDqkc-1" edge="1">
          <mxGeometry relative="1" as="geometry" />
        </mxCell>
        <mxCell id="r62edw3LymITYhODbOyO-8" value="Potential &lt;br&gt;germline &lt;br&gt;viariant &lt;br&gt;detected?" style="strokeWidth=2;html=1;shape=mxgraph.flowchart.decision;whiteSpace=wrap;rounded=1;arcSize=14;" parent="WIyWlLk6GJQsqaUBKTNV-1" vertex="1">
          <mxGeometry x="500" y="400" width="100" height="100" as="geometry" />
        </mxCell>
        <mxCell id="r62edw3LymITYhODbOyO-13" style="edgeStyle=orthogonalEdgeStyle;rounded=1;orthogonalLoop=1;jettySize=auto;html=1;endArrow=none;fontSize=13;startArrow=classic;startFill=1;endFill=0;fontStyle=1;strokeWidth=2;exitX=1;exitY=0.5;exitDx=0;exitDy=0;" parent="WIyWlLk6GJQsqaUBKTNV-1" source="r62edw3LymITYhODbOyO-11" target="r62edw3LymITYhODbOyO-10" edge="1">
          <mxGeometry relative="1" as="geometry" />
        </mxCell>
        <mxCell id="r62edw3LymITYhODbOyO-10" value="Integrated &lt;br&gt;Report &lt;br&gt;generated" style="rounded=1;whiteSpace=wrap;html=1;absoluteArcSize=1;arcSize=14;strokeWidth=2;" parent="WIyWlLk6GJQsqaUBKTNV-1" vertex="1">
          <mxGeometry x="210" y="400" width="100" height="100" as="geometry" />
        </mxCell>
        <mxCell id="r62edw3LymITYhODbOyO-52" style="edgeStyle=orthogonalEdgeStyle;shape=connector;rounded=1;orthogonalLoop=1;jettySize=auto;html=1;entryX=0.25;entryY=1;entryDx=0;entryDy=0;labelBackgroundColor=default;strokeColor=default;fontFamily=Helvetica;fontSize=13;fontColor=default;endArrow=none;exitX=0;exitY=0.5;exitDx=0;exitDy=0;startArrow=classic;startFill=1;endFill=0;fontStyle=1;strokeWidth=2;exitPerimeter=0;" parent="WIyWlLk6GJQsqaUBKTNV-1" source="r62edw3LymITYhODbOyO-24" target="r62edw3LymITYhODbOyO-11" edge="1">
          <mxGeometry relative="1" as="geometry" />
        </mxCell>
        <mxCell id="r62edw3LymITYhODbOyO-11" value="MDT decide on treatment, management etc" style="rounded=1;whiteSpace=wrap;html=1;absoluteArcSize=1;arcSize=14;strokeWidth=2;" parent="WIyWlLk6GJQsqaUBKTNV-1" vertex="1">
          <mxGeometry x="10" y="400" width="100" height="100" as="geometry" />
        </mxCell>
        <mxCell id="r62edw3LymITYhODbOyO-19" value="Patient &lt;br style=&quot;font-size: 14px;&quot;&gt;diagnosed with &lt;br style=&quot;font-size: 14px;&quot;&gt;cancer" style="strokeWidth=2;html=1;shape=mxgraph.flowchart.start_2;whiteSpace=wrap;fillColor=#fff2cc;strokeColor=#d6b656;shadow=1;fontSize=14;fontStyle=1" parent="WIyWlLk6GJQsqaUBKTNV-1" vertex="1">
          <mxGeometry x="10" y="150" width="100" height="100" as="geometry" />
        </mxCell>
        <mxCell id="r62edw3LymITYhODbOyO-23" value="" style="edgeStyle=orthogonalEdgeStyle;rounded=1;orthogonalLoop=1;jettySize=auto;html=1;endArrow=none;fontSize=13;startArrow=classic;startFill=1;endFill=0;fontStyle=1;strokeWidth=2;" parent="WIyWlLk6GJQsqaUBKTNV-1" source="r62edw3LymITYhODbOyO-22" target="r62edw3LymITYhODbOyO-21" edge="1">
          <mxGeometry relative="1" as="geometry" />
        </mxCell>
        <mxCell id="r62edw3LymITYhODbOyO-21" value="GP / Surgeon / Oncologist / MDT consider family history" style="strokeWidth=2;html=1;shape=mxgraph.flowchart.start_2;whiteSpace=wrap;fillColor=#fff2cc;strokeColor=#d6b656;shadow=1;" parent="WIyWlLk6GJQsqaUBKTNV-1" vertex="1">
          <mxGeometry x="60" y="560" width="100" height="100" as="geometry" />
        </mxCell>
        <mxCell id="r62edw3LymITYhODbOyO-25" value="NO" style="edgeStyle=orthogonalEdgeStyle;rounded=1;orthogonalLoop=1;jettySize=auto;html=1;endArrow=none;fontSize=13;startArrow=classic;startFill=1;endFill=0;fontStyle=1;strokeWidth=2;exitX=0.25;exitY=0;exitDx=0;exitDy=0;" parent="WIyWlLk6GJQsqaUBKTNV-1" source="r62edw3LymITYhODbOyO-32" target="r62edw3LymITYhODbOyO-22" edge="1">
          <mxGeometry relative="1" as="geometry" />
        </mxCell>
        <mxCell id="r62edw3LymITYhODbOyO-27" value="" style="edgeStyle=orthogonalEdgeStyle;rounded=0;orthogonalLoop=1;jettySize=auto;html=1;" parent="WIyWlLk6GJQsqaUBKTNV-1" source="r62edw3LymITYhODbOyO-22" edge="1">
          <mxGeometry relative="1" as="geometry">
            <mxPoint x="210" y="740" as="targetPoint" />
          </mxGeometry>
        </mxCell>
        <mxCell id="r62edw3LymITYhODbOyO-22" value="Family history significant?" style="rhombus;whiteSpace=wrap;html=1;strokeWidth=2;" parent="WIyWlLk6GJQsqaUBKTNV-1" vertex="1">
          <mxGeometry x="70" y="700" width="80" height="80" as="geometry" />
        </mxCell>
        <mxCell id="r62edw3LymITYhODbOyO-24" value="Process ends" style="strokeWidth=2;html=1;shape=mxgraph.flowchart.terminator;whiteSpace=wrap;fillColor=#B9E0A5;" parent="WIyWlLk6GJQsqaUBKTNV-1" vertex="1">
          <mxGeometry x="60" y="980" width="100" height="60" as="geometry" />
        </mxCell>
        <mxCell id="r62edw3LymITYhODbOyO-29" value="YES - refer&lt;br style=&quot;font-size: 13px;&quot;&gt;to Genetics" style="edgeStyle=orthogonalEdgeStyle;rounded=0;orthogonalLoop=1;jettySize=auto;html=1;startArrow=classic;startFill=1;endArrow=none;endFill=0;fontSize=13;fontStyle=1;strokeWidth=2;" parent="WIyWlLk6GJQsqaUBKTNV-1" source="r62edw3LymITYhODbOyO-28" target="r62edw3LymITYhODbOyO-22" edge="1">
          <mxGeometry relative="1" as="geometry">
            <Array as="points">
              <mxPoint x="230" y="740" />
              <mxPoint x="230" y="740" />
            </Array>
          </mxGeometry>
        </mxCell>
        <mxCell id="r62edw3LymITYhODbOyO-31" value="" style="edgeStyle=orthogonalEdgeStyle;rounded=0;orthogonalLoop=1;jettySize=auto;html=1;endArrow=none;fontSize=13;startArrow=classic;startFill=1;endFill=0;fontStyle=1;strokeWidth=2;entryX=1.026;entryY=0.638;entryDx=0;entryDy=0;entryPerimeter=0;" parent="WIyWlLk6GJQsqaUBKTNV-1" source="r62edw3LymITYhODbOyO-30" target="r62edw3LymITYhODbOyO-28" edge="1">
          <mxGeometry relative="1" as="geometry">
            <Array as="points">
              <mxPoint x="353" y="740" />
            </Array>
          </mxGeometry>
        </mxCell>
        <mxCell id="PiFhAG2NzzCI8QwvDqkc-0" style="edgeStyle=orthogonalEdgeStyle;rounded=1;orthogonalLoop=1;jettySize=auto;html=1;exitX=1.01;exitY=0.101;exitDx=0;exitDy=0;entryX=1.019;entryY=0.863;entryDx=0;entryDy=0;entryPerimeter=0;fontSize=14;strokeColor=#00CC00;strokeWidth=3;fontStyle=1;exitPerimeter=0;" parent="WIyWlLk6GJQsqaUBKTNV-1" source="r62edw3LymITYhODbOyO-28" target="r62edw3LymITYhODbOyO-41" edge="1">
          <mxGeometry relative="1" as="geometry">
            <Array as="points">
              <mxPoint x="650" y="673" />
              <mxPoint x="650" y="1032" />
            </Array>
          </mxGeometry>
        </mxCell>
        <mxCell id="r62edw3LymITYhODbOyO-28" value="Genetics team assess family history, clinical context etc" style="rounded=1;whiteSpace=wrap;html=1;absoluteArcSize=1;arcSize=14;strokeWidth=2;" parent="WIyWlLk6GJQsqaUBKTNV-1" vertex="1">
          <mxGeometry x="250" y="660" width="100" height="130" as="geometry" />
        </mxCell>
        <mxCell id="r62edw3LymITYhODbOyO-33" value="NO" style="edgeStyle=orthogonalEdgeStyle;rounded=1;orthogonalLoop=1;jettySize=auto;html=1;endArrow=none;fontSize=13;startArrow=classic;startFill=1;endFill=0;fontStyle=1;strokeWidth=2;entryX=0.5;entryY=1;entryDx=0;entryDy=0;exitX=1;exitY=0.25;exitDx=0;exitDy=0;" parent="WIyWlLk6GJQsqaUBKTNV-1" source="r62edw3LymITYhODbOyO-32" target="r62edw3LymITYhODbOyO-30" edge="1">
          <mxGeometry relative="1" as="geometry" />
        </mxCell>
        <mxCell id="r62edw3LymITYhODbOyO-37" value="YES" style="edgeStyle=orthogonalEdgeStyle;rounded=0;orthogonalLoop=1;jettySize=auto;html=1;endArrow=none;fontSize=13;startArrow=classic;startFill=1;endFill=0;fontStyle=1;strokeWidth=2;" parent="WIyWlLk6GJQsqaUBKTNV-1" source="r62edw3LymITYhODbOyO-36" target="r62edw3LymITYhODbOyO-30" edge="1">
          <mxGeometry relative="1" as="geometry" />
        </mxCell>
        <mxCell id="r62edw3LymITYhODbOyO-30" value="Meet criteria for genetic testing?" style="rhombus;whiteSpace=wrap;html=1;rounded=1;arcSize=14;strokeWidth=2;" parent="WIyWlLk6GJQsqaUBKTNV-1" vertex="1">
          <mxGeometry x="380" y="700" width="80" height="80" as="geometry" />
        </mxCell>
        <mxCell id="r62edw3LymITYhODbOyO-34" style="edgeStyle=orthogonalEdgeStyle;orthogonalLoop=1;jettySize=auto;html=1;rounded=1;endArrow=none;fontSize=13;startArrow=classic;startFill=1;endFill=0;fontStyle=1;strokeWidth=2;exitX=0.5;exitY=0;exitDx=0;exitDy=0;exitPerimeter=0;" parent="WIyWlLk6GJQsqaUBKTNV-1" source="r62edw3LymITYhODbOyO-24" target="r62edw3LymITYhODbOyO-32" edge="1">
          <mxGeometry relative="1" as="geometry" />
        </mxCell>
        <mxCell id="r62edw3LymITYhODbOyO-32" value="Recommendations for personal risk &amp;amp; family surveillance" style="whiteSpace=wrap;html=1;rounded=1;arcSize=14;strokeWidth=2;" parent="WIyWlLk6GJQsqaUBKTNV-1" vertex="1">
          <mxGeometry x="80" y="840" width="120" height="60" as="geometry" />
        </mxCell>
        <mxCell id="r62edw3LymITYhODbOyO-39" value="" style="edgeStyle=orthogonalEdgeStyle;rounded=1;orthogonalLoop=1;jettySize=auto;html=1;endArrow=none;fontSize=13;startArrow=classic;startFill=1;endFill=0;fontStyle=1;strokeWidth=2;" parent="WIyWlLk6GJQsqaUBKTNV-1" source="r62edw3LymITYhODbOyO-38" target="r62edw3LymITYhODbOyO-36" edge="1">
          <mxGeometry relative="1" as="geometry" />
        </mxCell>
        <mxCell id="r62edw3LymITYhODbOyO-36" value="Germline cancer panel testing" style="whiteSpace=wrap;html=1;rounded=1;arcSize=14;strokeWidth=2;" parent="WIyWlLk6GJQsqaUBKTNV-1" vertex="1">
          <mxGeometry x="510" y="710" width="120" height="60" as="geometry" />
        </mxCell>
        <mxCell id="r62edw3LymITYhODbOyO-40" value="NO" style="edgeStyle=orthogonalEdgeStyle;rounded=0;orthogonalLoop=1;jettySize=auto;html=1;endArrow=none;fontSize=13;startArrow=classic;startFill=1;endFill=0;fontStyle=1;strokeWidth=2;exitX=1;exitY=0.5;exitDx=0;exitDy=0;" parent="WIyWlLk6GJQsqaUBKTNV-1" source="r62edw3LymITYhODbOyO-32" target="r62edw3LymITYhODbOyO-38" edge="1">
          <mxGeometry relative="1" as="geometry">
            <mxPoint x="610" y="860" as="sourcePoint" />
          </mxGeometry>
        </mxCell>
        <mxCell id="r62edw3LymITYhODbOyO-42" value="YES" style="edgeStyle=orthogonalEdgeStyle;rounded=1;orthogonalLoop=1;jettySize=auto;html=1;exitX=1;exitY=0.25;exitDx=0;exitDy=0;entryX=1;entryY=0.5;entryDx=0;entryDy=0;endArrow=none;fontSize=13;startArrow=classic;startFill=1;endFill=0;fontStyle=1;strokeWidth=2;" parent="WIyWlLk6GJQsqaUBKTNV-1" source="r62edw3LymITYhODbOyO-41" target="r62edw3LymITYhODbOyO-38" edge="1">
          <mxGeometry relative="1" as="geometry" />
        </mxCell>
        <mxCell id="r62edw3LymITYhODbOyO-38" value="Germline&lt;br&gt;variant&lt;br&gt;detected?" style="rhombus;whiteSpace=wrap;html=1;rounded=1;arcSize=14;strokeWidth=2;" parent="WIyWlLk6GJQsqaUBKTNV-1" vertex="1">
          <mxGeometry x="530" y="830" width="80" height="80" as="geometry" />
        </mxCell>
        <mxCell id="r62edw3LymITYhODbOyO-43" style="edgeStyle=orthogonalEdgeStyle;shape=connector;rounded=1;orthogonalLoop=1;jettySize=auto;html=1;labelBackgroundColor=default;strokeColor=default;fontFamily=Helvetica;fontSize=13;fontColor=default;endArrow=none;startArrow=classic;startFill=1;endFill=0;fontStyle=1;strokeWidth=2;exitX=1;exitY=0.5;exitDx=0;exitDy=0;exitPerimeter=0;" parent="WIyWlLk6GJQsqaUBKTNV-1" source="r62edw3LymITYhODbOyO-24" target="r62edw3LymITYhODbOyO-41" edge="1">
          <mxGeometry relative="1" as="geometry" />
        </mxCell>
        <mxCell id="r62edw3LymITYhODbOyO-41" value="Genetic counselling&lt;br&gt;Targeted surveillance&lt;br&gt;Cascade testing in family" style="whiteSpace=wrap;html=1;rounded=1;arcSize=14;strokeWidth=2;" parent="WIyWlLk6GJQsqaUBKTNV-1" vertex="1">
          <mxGeometry x="268" y="980" width="304" height="60" as="geometry" />
        </mxCell>
        <mxCell id="r62edw3LymITYhODbOyO-47" value="" style="edgeStyle=orthogonalEdgeStyle;shape=connector;rounded=1;orthogonalLoop=1;jettySize=auto;html=1;labelBackgroundColor=default;strokeColor=#00CC00;fontFamily=Helvetica;fontSize=11;fontColor=default;endArrow=classic;strokeWidth=3;" parent="WIyWlLk6GJQsqaUBKTNV-1" source="r62edw3LymITYhODbOyO-44" target="r62edw3LymITYhODbOyO-46" edge="1">
          <mxGeometry relative="1" as="geometry" />
        </mxCell>
        <mxCell id="r62edw3LymITYhODbOyO-44" value="Confirmatory testing in Germline lab" style="whiteSpace=wrap;html=1;strokeWidth=2;perimeterSpacing=1;rounded=1;fontSize=11;strokeColor=#00CC00;arcSize=12;" parent="WIyWlLk6GJQsqaUBKTNV-1" vertex="1">
          <mxGeometry x="680" y="680" width="120" height="60" as="geometry" />
        </mxCell>
        <mxCell id="r62edw3LymITYhODbOyO-48" value="NO" style="edgeStyle=orthogonalEdgeStyle;shape=connector;rounded=1;orthogonalLoop=1;jettySize=auto;html=1;labelBackgroundColor=default;strokeColor=#00CC00;fontFamily=Helvetica;fontSize=14;fontColor=default;endArrow=classic;strokeWidth=3;entryX=0.25;entryY=1;entryDx=0;entryDy=0;fontStyle=1;" parent="WIyWlLk6GJQsqaUBKTNV-1" source="r62edw3LymITYhODbOyO-46" target="r62edw3LymITYhODbOyO-10" edge="1">
          <mxGeometry relative="1" as="geometry">
            <mxPoint x="290" y="520" as="targetPoint" />
            <Array as="points">
              <mxPoint x="670" y="810" />
              <mxPoint x="670" y="620" />
              <mxPoint x="235" y="620" />
            </Array>
          </mxGeometry>
        </mxCell>
        <mxCell id="r62edw3LymITYhODbOyO-50" value="YES" style="edgeStyle=orthogonalEdgeStyle;shape=connector;rounded=1;orthogonalLoop=1;jettySize=auto;html=1;labelBackgroundColor=default;strokeColor=#00CC00;fontFamily=Helvetica;fontSize=14;fontColor=default;endArrow=classic;strokeWidth=3;fontStyle=1;" parent="WIyWlLk6GJQsqaUBKTNV-1" source="r62edw3LymITYhODbOyO-46" target="r62edw3LymITYhODbOyO-49" edge="1">
          <mxGeometry relative="1" as="geometry" />
        </mxCell>
        <mxCell id="r62edw3LymITYhODbOyO-46" value="Germline pathogenic variant confirmed?" style="rhombus;whiteSpace=wrap;html=1;strokeWidth=2;rounded=1;fontSize=11;strokeColor=#00CC00;arcSize=12;" parent="WIyWlLk6GJQsqaUBKTNV-1" vertex="1">
          <mxGeometry x="700" y="770" width="80" height="80" as="geometry" />
        </mxCell>
        <mxCell id="r62edw3LymITYhODbOyO-51" style="edgeStyle=orthogonalEdgeStyle;shape=connector;rounded=1;orthogonalLoop=1;jettySize=auto;html=1;entryX=0;entryY=1;entryDx=0;entryDy=0;labelBackgroundColor=default;strokeColor=#00CC00;fontFamily=Helvetica;fontSize=11;fontColor=default;endArrow=classic;strokeWidth=3;" parent="WIyWlLk6GJQsqaUBKTNV-1" source="r62edw3LymITYhODbOyO-49" target="r62edw3LymITYhODbOyO-11" edge="1">
          <mxGeometry relative="1" as="geometry">
            <Array as="points">
              <mxPoint x="740" y="1070" />
              <mxPoint x="10" y="1070" />
            </Array>
          </mxGeometry>
        </mxCell>
        <mxCell id="PiFhAG2NzzCI8QwvDqkc-9" value="loop back to MTB" style="edgeStyle=orthogonalEdgeStyle;shape=connector;rounded=1;orthogonalLoop=1;jettySize=auto;html=1;exitX=1;exitY=0.5;exitDx=0;exitDy=0;entryX=0.898;entryY=1.028;entryDx=0;entryDy=0;entryPerimeter=0;labelBackgroundColor=default;strokeColor=#00CC00;strokeWidth=3;fontFamily=Helvetica;fontSize=11;fontColor=default;endArrow=classic;" parent="WIyWlLk6GJQsqaUBKTNV-1" source="r62edw3LymITYhODbOyO-49" target="PiFhAG2NzzCI8QwvDqkc-1" edge="1">
          <mxGeometry relative="1" as="geometry">
            <Array as="points">
              <mxPoint x="870" y="1010" />
              <mxPoint x="870" y="570" />
              <mxPoint x="788" y="570" />
            </Array>
          </mxGeometry>
        </mxCell>
        <mxCell id="r62edw3LymITYhODbOyO-49" value="Genetic Counsellor liaises with MDT" style="whiteSpace=wrap;html=1;strokeWidth=2;rounded=1;fontSize=11;strokeColor=#00CC00;arcSize=12;" parent="WIyWlLk6GJQsqaUBKTNV-1" vertex="1">
          <mxGeometry x="670" y="980" width="140" height="60" as="geometry" />
        </mxCell>
        <mxCell id="r62edw3LymITYhODbOyO-61" value="Green lines, symbols &amp;amp; boxes represent the &lt;b style=&quot;font-size: 19px;&quot;&gt;new process&lt;/b&gt;" style="rounded=1;whiteSpace=wrap;html=1;fontFamily=Helvetica;fontSize=19;fontColor=default;strokeColor=#00CC00;strokeWidth=5;arcSize=12;" parent="WIyWlLk6GJQsqaUBKTNV-1" vertex="1">
          <mxGeometry x="640" y="150" width="160" height="150" as="geometry" />
        </mxCell>
        <mxCell id="FzFu1lCSK658Zhzd-CzV-0" value="CANCER GENOMICS PHASE 1" style="label;whiteSpace=wrap;html=1;image=img/clipart/Gear_128x128.png" parent="WIyWlLk6GJQsqaUBKTNV-1" vertex="1">
          <mxGeometry x="210" y="150" width="390" height="60" as="geometry" />
        </mxCell>
        <mxCell id="FzFu1lCSK658Zhzd-CzV-1" value="MDT arrange discussion with patient &amp;amp; Genetics, Consent" style="whiteSpace=wrap;html=1;strokeWidth=2;rounded=1;arcSize=12;fontSize=11;strokeColor=#00CC00;" parent="WIyWlLk6GJQsqaUBKTNV-1" vertex="1">
          <mxGeometry x="680" y="587" width="120" height="60" as="geometry" />
        </mxCell>
        <mxCell id="FzFu1lCSK658Zhzd-CzV-3" value="" style="edgeStyle=orthogonalEdgeStyle;shape=connector;rounded=1;orthogonalLoop=1;jettySize=auto;html=1;labelBackgroundColor=default;strokeColor=#00CC00;fontFamily=Helvetica;fontSize=11;fontColor=default;endArrow=classic;strokeWidth=3;exitX=0.5;exitY=1;exitDx=0;exitDy=0;" parent="WIyWlLk6GJQsqaUBKTNV-1" source="FzFu1lCSK658Zhzd-CzV-1" target="r62edw3LymITYhODbOyO-44" edge="1">
          <mxGeometry relative="1" as="geometry">
            <mxPoint x="750" y="711" as="sourcePoint" />
            <mxPoint x="740" y="640" as="targetPoint" />
          </mxGeometry>
        </mxCell>
        <mxCell id="ghyRrjVJzyA8r7RWeu4J-0" value="CONSENT&amp;nbsp;&lt;br&gt;via MDT" style="edgeStyle=orthogonalEdgeStyle;shape=connector;rounded=1;orthogonalLoop=1;jettySize=auto;html=1;entryX=0;entryY=0.25;entryDx=0;entryDy=0;labelBackgroundColor=default;strokeColor=#00CC00;fontFamily=Helvetica;fontSize=11;fontColor=default;endArrow=classic;strokeWidth=3;exitX=0;exitY=1;exitDx=0;exitDy=0;" parent="WIyWlLk6GJQsqaUBKTNV-1" source="r62edw3LymITYhODbOyO-11" target="r62edw3LymITYhODbOyO-28" edge="1">
          <mxGeometry relative="1" as="geometry">
            <mxPoint x="750" y="1050" as="sourcePoint" />
            <mxPoint x="20" y="510" as="targetPoint" />
            <Array as="points">
              <mxPoint x="10" y="480" />
              <mxPoint x="190" y="480" />
              <mxPoint x="190" y="693" />
              <mxPoint x="250" y="693" />
            </Array>
          </mxGeometry>
        </mxCell>
        <mxCell id="PiFhAG2NzzCI8QwvDqkc-3" style="edgeStyle=orthogonalEdgeStyle;rounded=1;orthogonalLoop=1;jettySize=auto;html=1;exitX=0.5;exitY=1;exitDx=0;exitDy=0;entryX=0.5;entryY=0;entryDx=0;entryDy=0;strokeColor=#00CC00;strokeWidth=3;" parent="WIyWlLk6GJQsqaUBKTNV-1" source="PiFhAG2NzzCI8QwvDqkc-1" target="FzFu1lCSK658Zhzd-CzV-1" edge="1">
          <mxGeometry relative="1" as="geometry" />
        </mxCell>
        <mxCell id="PiFhAG2NzzCI8QwvDqkc-6" style="edgeStyle=orthogonalEdgeStyle;shape=connector;rounded=1;orthogonalLoop=1;jettySize=auto;html=1;exitX=1;exitY=0.5;exitDx=0;exitDy=0;entryX=0;entryY=0.5;entryDx=0;entryDy=0;labelBackgroundColor=default;strokeColor=#00CC00;strokeWidth=3;fontFamily=Helvetica;fontSize=11;fontColor=default;endArrow=classic;" parent="WIyWlLk6GJQsqaUBKTNV-1" source="PiFhAG2NzzCI8QwvDqkc-1" target="PiFhAG2NzzCI8QwvDqkc-5" edge="1">
          <mxGeometry relative="1" as="geometry" />
        </mxCell>
        <mxCell id="PiFhAG2NzzCI8QwvDqkc-1" value="MOLECULAR TUMOUR BOARD&lt;br&gt;(on-tumour/off-tumour)" style="whiteSpace=wrap;html=1;fontSize=11;strokeColor=#00CC00;strokeWidth=2;rounded=1;arcSize=12;gradientColor=#66B2FF;" parent="WIyWlLk6GJQsqaUBKTNV-1" vertex="1">
          <mxGeometry x="680" y="490" width="120" height="60" as="geometry" />
        </mxCell>
        <mxCell id="PiFhAG2NzzCI8QwvDqkc-7" style="edgeStyle=orthogonalEdgeStyle;shape=connector;rounded=1;orthogonalLoop=1;jettySize=auto;html=1;exitX=0.5;exitY=1;exitDx=0;exitDy=0;entryX=1;entryY=0.5;entryDx=0;entryDy=0;labelBackgroundColor=default;strokeColor=#00CC00;strokeWidth=3;fontFamily=Helvetica;fontSize=11;fontColor=default;endArrow=classic;" parent="WIyWlLk6GJQsqaUBKTNV-1" source="PiFhAG2NzzCI8QwvDqkc-5" target="FzFu1lCSK658Zhzd-CzV-1" edge="1">
          <mxGeometry relative="1" as="geometry">
            <Array as="points">
              <mxPoint x="900" y="617" />
            </Array>
          </mxGeometry>
        </mxCell>
        <mxCell id="PiFhAG2NzzCI8QwvDqkc-5" value="MTB Report generated" style="shape=process;whiteSpace=wrap;html=1;backgroundOutline=1;fontSize=11;strokeColor=#00CC00;strokeWidth=2;rounded=1;arcSize=12;gradientColor=#66B2FF;" parent="WIyWlLk6GJQsqaUBKTNV-1" vertex="1">
          <mxGeometry x="840" y="490" width="120" height="60" as="geometry" />
        </mxCell>
        <mxCell id="PiFhAG2NzzCI8QwvDqkc-8" value="terms of reference for MTB&lt;br&gt;trackers&lt;br&gt;pathways for liaison with MTD&lt;br&gt;Co-ordinator&lt;br&gt;Actionability criteria &amp;amp; pathways&lt;br&gt;" style="text;html=1;align=center;verticalAlign=middle;resizable=0;points=[];autosize=1;strokeColor=none;fillColor=none;fontSize=11;fontFamily=Helvetica;fontColor=default;" parent="WIyWlLk6GJQsqaUBKTNV-1" vertex="1">
          <mxGeometry x="1030" y="490" width="180" height="80" as="geometry" />
        </mxCell>
      </root>
    </mxGraphModel>
  </diagram>
  <diagram id="2ArrnOq7__Pzjv5Jlhk_" name="Page-2">
    <mxGraphModel dx="1386" dy="2048" grid="1" gridSize="10" guides="1" tooltips="1" connect="1" arrows="1" fold="1" page="1" pageScale="1" pageWidth="827" pageHeight="1169" math="0" shadow="0">
      <root>
        <mxCell id="0" />
        <mxCell id="1" parent="0" />
        <mxCell id="g36YT8rhsYMa3pHuHRKw-1" value="Pool" style="swimlane;childLayout=stackLayout;resizeParent=1;resizeParentMax=0;startSize=20;horizontal=0;horizontalStack=1;" parent="1" vertex="1">
          <mxGeometry x="20" y="-1169" width="750" height="810" as="geometry" />
        </mxCell>
        <mxCell id="g36YT8rhsYMa3pHuHRKw-2" value="CANCER MDT" style="swimlane;startSize=20;" parent="g36YT8rhsYMa3pHuHRKw-1" vertex="1">
          <mxGeometry x="20" width="120" height="810" as="geometry" />
        </mxCell>
        <mxCell id="SrVyewDlU3uoMnBgW5wj-3" value="Treatment proceeds" style="rounded=0;whiteSpace=wrap;html=1;" parent="g36YT8rhsYMa3pHuHRKw-2" vertex="1">
          <mxGeometry x="15" y="130" width="90" height="60" as="geometry" />
        </mxCell>
        <mxCell id="eYmkSpLNEl5vK8yNRcOd-3" value="MDT request GC to see - rapid pathway" style="rounded=0;whiteSpace=wrap;html=1;" parent="g36YT8rhsYMa3pHuHRKw-2" vertex="1">
          <mxGeometry x="15" y="359" width="90" height="60" as="geometry" />
        </mxCell>
        <mxCell id="hXt-DK1lY1Fj1__o6OTE-1" value="Process ends" style="strokeWidth=2;html=1;shape=mxgraph.flowchart.terminator;whiteSpace=wrap;fillColor=#B9E0A5;" parent="g36YT8rhsYMa3pHuHRKw-2" vertex="1">
          <mxGeometry x="10" y="740" width="100" height="60" as="geometry" />
        </mxCell>
        <mxCell id="cS3_ZyRYBnCWuyrL6ZrW-3" value="PATIENT REGISTERED" style="rounded=0;whiteSpace=wrap;html=1;fontFamily=Helvetica;fontSize=11;fontColor=default;labelBackgroundColor=none;textShadow=1;" parent="g36YT8rhsYMa3pHuHRKw-2" vertex="1">
          <mxGeometry x="10" y="29" width="100" height="50" as="geometry" />
        </mxCell>
        <mxCell id="2WVuV4Gr2ys-nitfrG9l-1" style="edgeStyle=orthogonalEdgeStyle;rounded=0;orthogonalLoop=1;jettySize=auto;html=1;exitX=0;exitY=0.5;exitDx=0;exitDy=0;entryX=0;entryY=0.5;entryDx=0;entryDy=0;entryPerimeter=0;curved=1;" edge="1" parent="g36YT8rhsYMa3pHuHRKw-2" source="SrVyewDlU3uoMnBgW5wj-3" target="hXt-DK1lY1Fj1__o6OTE-1">
          <mxGeometry relative="1" as="geometry">
            <Array as="points">
              <mxPoint x="-30" y="160" />
              <mxPoint x="-30" y="770" />
            </Array>
          </mxGeometry>
        </mxCell>
        <mxCell id="g36YT8rhsYMa3pHuHRKw-3" value="MTB" style="swimlane;startSize=20;" parent="g36YT8rhsYMa3pHuHRKw-1" vertex="1">
          <mxGeometry x="140" width="120" height="810" as="geometry" />
        </mxCell>
        <mxCell id="eYmkSpLNEl5vK8yNRcOd-2" style="edgeStyle=orthogonalEdgeStyle;rounded=0;orthogonalLoop=1;jettySize=auto;html=1;exitX=0.5;exitY=1;exitDx=0;exitDy=0;entryX=0.5;entryY=0;entryDx=0;entryDy=0;" parent="g36YT8rhsYMa3pHuHRKw-3" source="2Fz9pFnyrf1bxtLFpxsD-2" target="eYmkSpLNEl5vK8yNRcOd-1" edge="1">
          <mxGeometry relative="1" as="geometry" />
        </mxCell>
        <mxCell id="2Fz9pFnyrf1bxtLFpxsD-2" value="MTB considers variant" style="rounded=0;whiteSpace=wrap;html=1;" parent="g36YT8rhsYMa3pHuHRKw-3" vertex="1">
          <mxGeometry x="20" y="250" width="80" height="60" as="geometry" />
        </mxCell>
        <mxCell id="eYmkSpLNEl5vK8yNRcOd-20" value="NO" style="edgeStyle=orthogonalEdgeStyle;curved=1;rounded=0;orthogonalLoop=1;jettySize=auto;html=1;exitX=0.5;exitY=1;exitDx=0;exitDy=0;entryX=0.5;entryY=0;entryDx=0;entryDy=0;strokeColor=default;align=center;verticalAlign=middle;fontFamily=Helvetica;fontSize=11;fontColor=default;labelBackgroundColor=default;endArrow=classic;" parent="g36YT8rhsYMa3pHuHRKw-3" source="eYmkSpLNEl5vK8yNRcOd-1" target="eYmkSpLNEl5vK8yNRcOd-18" edge="1">
          <mxGeometry x="-0.1469" relative="1" as="geometry">
            <mxPoint as="offset" />
          </mxGeometry>
        </mxCell>
        <mxCell id="eYmkSpLNEl5vK8yNRcOd-1" value="for germline testing?" style="rhombus;whiteSpace=wrap;html=1;" parent="g36YT8rhsYMa3pHuHRKw-3" vertex="1">
          <mxGeometry x="20" y="349" width="80" height="60" as="geometry" />
        </mxCell>
        <mxCell id="eYmkSpLNEl5vK8yNRcOd-18" value="RESULTS REVIEWED" style="rounded=0;whiteSpace=wrap;html=1;fontFamily=Helvetica;fontSize=11;labelBackgroundColor=none;textShadow=1;" parent="g36YT8rhsYMa3pHuHRKw-3" vertex="1">
          <mxGeometry x="15" y="620" width="90" height="50" as="geometry" />
        </mxCell>
        <mxCell id="g36YT8rhsYMa3pHuHRKw-4" value="PATH LAB" style="swimlane;startSize=20;" parent="g36YT8rhsYMa3pHuHRKw-1" vertex="1">
          <mxGeometry x="260" width="120" height="810" as="geometry" />
        </mxCell>
        <mxCell id="SrVyewDlU3uoMnBgW5wj-2" style="edgeStyle=orthogonalEdgeStyle;rounded=0;orthogonalLoop=1;jettySize=auto;html=1;exitX=0.5;exitY=1;exitDx=0;exitDy=0;entryX=0.5;entryY=0;entryDx=0;entryDy=0;" parent="g36YT8rhsYMa3pHuHRKw-4" source="_ztHie-JmmjU_YfWzIsF-1" target="_ztHie-JmmjU_YfWzIsF-2" edge="1">
          <mxGeometry relative="1" as="geometry" />
        </mxCell>
        <mxCell id="_ztHie-JmmjU_YfWzIsF-1" value="Tumour analysis - report generated" style="rounded=0;whiteSpace=wrap;html=1;" parent="g36YT8rhsYMa3pHuHRKw-4" vertex="1">
          <mxGeometry x="10" y="49" width="100" height="50" as="geometry" />
        </mxCell>
        <mxCell id="_ztHie-JmmjU_YfWzIsF-2" value="suitable for genomic analysis?" style="rhombus;whiteSpace=wrap;html=1;" parent="g36YT8rhsYMa3pHuHRKw-4" vertex="1">
          <mxGeometry x="20" y="120" width="80" height="80" as="geometry" />
        </mxCell>
        <mxCell id="g36YT8rhsYMa3pHuHRKw-6" value="Genetic Coun" style="swimlane;startSize=20;" parent="g36YT8rhsYMa3pHuHRKw-1" vertex="1">
          <mxGeometry x="380" width="120" height="810" as="geometry" />
        </mxCell>
        <mxCell id="eYmkSpLNEl5vK8yNRcOd-5" value="GC contacts patient to discuss germline testing, CONSENT" style="rounded=0;whiteSpace=wrap;html=1;" parent="g36YT8rhsYMa3pHuHRKw-6" vertex="1">
          <mxGeometry x="10" y="390" width="100" height="90" as="geometry" />
        </mxCell>
        <mxCell id="eYmkSpLNEl5vK8yNRcOd-22" value="Give results, arrange cascade testing etc" style="rounded=0;whiteSpace=wrap;html=1;fontFamily=Helvetica;fontSize=11;fontColor=default;labelBackgroundColor=default;" parent="g36YT8rhsYMa3pHuHRKw-6" vertex="1">
          <mxGeometry x="15" y="620" width="90" height="50" as="geometry" />
        </mxCell>
        <mxCell id="cS3_ZyRYBnCWuyrL6ZrW-1" value="Usual Genetics process continues" style="strokeWidth=2;html=1;shape=mxgraph.flowchart.terminator;whiteSpace=wrap;fillColor=#B9E0A5;" parent="g36YT8rhsYMa3pHuHRKw-6" vertex="1">
          <mxGeometry x="10" y="739" width="100" height="60" as="geometry" />
        </mxCell>
        <mxCell id="cS3_ZyRYBnCWuyrL6ZrW-2" style="edgeStyle=orthogonalEdgeStyle;curved=1;rounded=0;orthogonalLoop=1;jettySize=auto;html=1;exitX=0.5;exitY=1;exitDx=0;exitDy=0;entryX=0.5;entryY=0;entryDx=0;entryDy=0;entryPerimeter=0;strokeColor=default;align=center;verticalAlign=middle;fontFamily=Helvetica;fontSize=11;fontColor=default;labelBackgroundColor=default;endArrow=classic;" parent="g36YT8rhsYMa3pHuHRKw-6" source="eYmkSpLNEl5vK8yNRcOd-22" target="cS3_ZyRYBnCWuyrL6ZrW-1" edge="1">
          <mxGeometry relative="1" as="geometry" />
        </mxCell>
        <mxCell id="g36YT8rhsYMa3pHuHRKw-7" value="PATIENT" style="swimlane;startSize=20;" parent="g36YT8rhsYMa3pHuHRKw-1" vertex="1">
          <mxGeometry x="500" width="120" height="810" as="geometry" />
        </mxCell>
        <mxCell id="g36YT8rhsYMa3pHuHRKw-9" value="TUMOUR BIOPSIED" style="rounded=1;whiteSpace=wrap;html=1;fillColor=#d5e8d4;strokeColor=#82b366;textShadow=1;" parent="g36YT8rhsYMa3pHuHRKw-7" vertex="1">
          <mxGeometry x="20" y="30" width="80" height="30" as="geometry" />
        </mxCell>
        <mxCell id="eYmkSpLNEl5vK8yNRcOd-11" value="Patient sample taken" style="rounded=0;whiteSpace=wrap;html=1;fontFamily=Helvetica;fontSize=11;fontColor=default;labelBackgroundColor=default;" parent="g36YT8rhsYMa3pHuHRKw-7" vertex="1">
          <mxGeometry x="30" y="370" width="60" height="60" as="geometry" />
        </mxCell>
        <mxCell id="g36YT8rhsYMa3pHuHRKw-8" value="GENETICS LAB" style="swimlane;startSize=20;" parent="g36YT8rhsYMa3pHuHRKw-1" vertex="1">
          <mxGeometry x="620" width="130" height="810" as="geometry" />
        </mxCell>
        <mxCell id="8w-hkuK-flL9y8Lx-Mv8-1" style="edgeStyle=orthogonalEdgeStyle;rounded=0;orthogonalLoop=1;jettySize=auto;html=1;exitX=0.5;exitY=1;exitDx=0;exitDy=0;entryX=0.5;entryY=0;entryDx=0;entryDy=0;curved=1;" parent="g36YT8rhsYMa3pHuHRKw-8" source="PB774hIbTJgRv1Q6sqz4-1" target="SrVyewDlU3uoMnBgW5wj-5" edge="1">
          <mxGeometry relative="1" as="geometry" />
        </mxCell>
        <mxCell id="PB774hIbTJgRv1Q6sqz4-1" value="Tumour sequencing" style="rounded=0;whiteSpace=wrap;html=1;" parent="g36YT8rhsYMa3pHuHRKw-8" vertex="1">
          <mxGeometry x="20" y="110" width="90" height="50" as="geometry" />
        </mxCell>
        <mxCell id="eYmkSpLNEl5vK8yNRcOd-21" value="NO" style="edgeStyle=orthogonalEdgeStyle;curved=1;rounded=0;orthogonalLoop=1;jettySize=auto;html=1;exitX=0;exitY=0.5;exitDx=0;exitDy=0;strokeColor=default;align=center;verticalAlign=middle;fontFamily=Helvetica;fontSize=11;fontColor=default;labelBackgroundColor=default;endArrow=classic;" parent="g36YT8rhsYMa3pHuHRKw-8" source="SrVyewDlU3uoMnBgW5wj-5" edge="1">
          <mxGeometry x="-0.7999" y="4" relative="1" as="geometry">
            <mxPoint x="-420" y="620" as="targetPoint" />
            <mxPoint as="offset" />
          </mxGeometry>
        </mxCell>
        <mxCell id="SrVyewDlU3uoMnBgW5wj-5" value="Potential germline variant identified?" style="rhombus;whiteSpace=wrap;html=1;" parent="g36YT8rhsYMa3pHuHRKw-8" vertex="1">
          <mxGeometry x="25" y="180" width="80" height="70" as="geometry" />
        </mxCell>
        <mxCell id="eYmkSpLNEl5vK8yNRcOd-7" value="This includes RMDS &amp;amp; PMC as appropriate" style="shape=note;whiteSpace=wrap;html=1;perimeter=calloutPerimeter;fontFamily=Helvetica;fontSize=11;labelBackgroundColor=none;position2=0.06;size=30;position=0.44;base=20;fillColor=#fff2cc;strokeColor=#d6b656;textShadow=1;" parent="g36YT8rhsYMa3pHuHRKw-8" vertex="1">
          <mxGeometry x="10" y="30" width="110" height="60" as="geometry" />
        </mxCell>
        <mxCell id="eYmkSpLNEl5vK8yNRcOd-16" value="Testing in lab - variant found in germline?" style="rhombus;whiteSpace=wrap;html=1;fontFamily=Helvetica;fontSize=11;fontColor=default;labelBackgroundColor=none;" parent="g36YT8rhsYMa3pHuHRKw-8" vertex="1">
          <mxGeometry x="25" y="360" width="80" height="80" as="geometry" />
        </mxCell>
        <mxCell id="PB774hIbTJgRv1Q6sqz4-2" value="YES" style="edgeStyle=orthogonalEdgeStyle;rounded=0;orthogonalLoop=1;jettySize=auto;html=1;exitX=1;exitY=0.5;exitDx=0;exitDy=0;curved=1;" parent="g36YT8rhsYMa3pHuHRKw-1" source="_ztHie-JmmjU_YfWzIsF-2" target="PB774hIbTJgRv1Q6sqz4-1" edge="1">
          <mxGeometry relative="1" as="geometry" />
        </mxCell>
        <mxCell id="PB774hIbTJgRv1Q6sqz4-3" style="edgeStyle=orthogonalEdgeStyle;rounded=0;orthogonalLoop=1;jettySize=auto;html=1;exitX=0;exitY=0.5;exitDx=0;exitDy=0;entryX=1;entryY=0.5;entryDx=0;entryDy=0;curved=1;" parent="g36YT8rhsYMa3pHuHRKw-1" source="g36YT8rhsYMa3pHuHRKw-9" target="_ztHie-JmmjU_YfWzIsF-1" edge="1">
          <mxGeometry relative="1" as="geometry" />
        </mxCell>
        <mxCell id="SrVyewDlU3uoMnBgW5wj-4" style="edgeStyle=orthogonalEdgeStyle;rounded=0;orthogonalLoop=1;jettySize=auto;html=1;exitX=0;exitY=0.5;exitDx=0;exitDy=0;entryX=0.5;entryY=0;entryDx=0;entryDy=0;curved=1;" parent="g36YT8rhsYMa3pHuHRKw-1" source="_ztHie-JmmjU_YfWzIsF-1" target="SrVyewDlU3uoMnBgW5wj-3" edge="1">
          <mxGeometry relative="1" as="geometry" />
        </mxCell>
        <mxCell id="2Fz9pFnyrf1bxtLFpxsD-3" value="YES" style="edgeStyle=orthogonalEdgeStyle;rounded=0;orthogonalLoop=1;jettySize=auto;html=1;exitX=0.5;exitY=1;exitDx=0;exitDy=0;entryX=1;entryY=0.5;entryDx=0;entryDy=0;curved=1;" parent="g36YT8rhsYMa3pHuHRKw-1" source="SrVyewDlU3uoMnBgW5wj-5" target="2Fz9pFnyrf1bxtLFpxsD-2" edge="1">
          <mxGeometry x="-0.7263" y="-21" relative="1" as="geometry">
            <mxPoint as="offset" />
          </mxGeometry>
        </mxCell>
        <mxCell id="cbSpkc_TnC8vaTYj-fXT-2" value="NO" style="edgeStyle=orthogonalEdgeStyle;rounded=0;orthogonalLoop=1;jettySize=auto;html=1;exitX=0;exitY=0.5;exitDx=0;exitDy=0;entryX=1;entryY=0.5;entryDx=0;entryDy=0;curved=1;" parent="g36YT8rhsYMa3pHuHRKw-1" source="_ztHie-JmmjU_YfWzIsF-2" target="SrVyewDlU3uoMnBgW5wj-3" edge="1">
          <mxGeometry relative="1" as="geometry" />
        </mxCell>
        <mxCell id="eYmkSpLNEl5vK8yNRcOd-4" value="YES" style="edgeStyle=orthogonalEdgeStyle;rounded=0;orthogonalLoop=1;jettySize=auto;html=1;exitX=0;exitY=0.5;exitDx=0;exitDy=0;entryX=1;entryY=0.5;entryDx=0;entryDy=0;curved=1;" parent="g36YT8rhsYMa3pHuHRKw-1" source="eYmkSpLNEl5vK8yNRcOd-1" target="eYmkSpLNEl5vK8yNRcOd-3" edge="1">
          <mxGeometry x="-0.5556" y="-10" relative="1" as="geometry">
            <mxPoint as="offset" />
          </mxGeometry>
        </mxCell>
        <mxCell id="eYmkSpLNEl5vK8yNRcOd-6" style="edgeStyle=orthogonalEdgeStyle;rounded=0;orthogonalLoop=1;jettySize=auto;html=1;exitX=0.5;exitY=1;exitDx=0;exitDy=0;entryX=0.5;entryY=0;entryDx=0;entryDy=0;curved=1;" parent="g36YT8rhsYMa3pHuHRKw-1" source="eYmkSpLNEl5vK8yNRcOd-3" target="eYmkSpLNEl5vK8yNRcOd-5" edge="1">
          <mxGeometry relative="1" as="geometry">
            <Array as="points">
              <mxPoint x="80" y="430" />
              <mxPoint x="290" y="430" />
              <mxPoint x="290" y="340" />
              <mxPoint x="440" y="340" />
            </Array>
          </mxGeometry>
        </mxCell>
        <mxCell id="eYmkSpLNEl5vK8yNRcOd-13" style="edgeStyle=orthogonalEdgeStyle;curved=1;rounded=0;orthogonalLoop=1;jettySize=auto;html=1;exitX=1;exitY=0.5;exitDx=0;exitDy=0;entryX=0;entryY=0.5;entryDx=0;entryDy=0;strokeColor=default;align=center;verticalAlign=middle;fontFamily=Helvetica;fontSize=11;fontColor=default;labelBackgroundColor=default;endArrow=classic;" parent="g36YT8rhsYMa3pHuHRKw-1" source="eYmkSpLNEl5vK8yNRcOd-5" target="eYmkSpLNEl5vK8yNRcOd-11" edge="1">
          <mxGeometry relative="1" as="geometry" />
        </mxCell>
        <mxCell id="eYmkSpLNEl5vK8yNRcOd-15" style="edgeStyle=orthogonalEdgeStyle;curved=1;rounded=0;orthogonalLoop=1;jettySize=auto;html=1;exitX=1;exitY=0.5;exitDx=0;exitDy=0;entryX=0.5;entryY=0;entryDx=0;entryDy=0;strokeColor=default;align=center;verticalAlign=middle;fontFamily=Helvetica;fontSize=11;fontColor=default;labelBackgroundColor=default;endArrow=classic;" parent="g36YT8rhsYMa3pHuHRKw-1" source="eYmkSpLNEl5vK8yNRcOd-11" target="eYmkSpLNEl5vK8yNRcOd-16" edge="1">
          <mxGeometry relative="1" as="geometry">
            <mxPoint x="645" y="395" as="targetPoint" />
          </mxGeometry>
        </mxCell>
        <mxCell id="eYmkSpLNEl5vK8yNRcOd-19" value="NO" style="edgeStyle=orthogonalEdgeStyle;curved=1;rounded=0;orthogonalLoop=1;jettySize=auto;html=1;exitX=0;exitY=0.5;exitDx=0;exitDy=0;strokeColor=default;align=center;verticalAlign=middle;fontFamily=Helvetica;fontSize=11;fontColor=default;labelBackgroundColor=default;endArrow=classic;" parent="g36YT8rhsYMa3pHuHRKw-1" source="eYmkSpLNEl5vK8yNRcOd-16" edge="1">
          <mxGeometry relative="1" as="geometry">
            <mxPoint x="200" y="619" as="targetPoint" />
            <Array as="points">
              <mxPoint x="610" y="400" />
              <mxPoint x="610" y="510" />
              <mxPoint x="200" y="510" />
            </Array>
          </mxGeometry>
        </mxCell>
        <mxCell id="eYmkSpLNEl5vK8yNRcOd-23" value="YES" style="edgeStyle=orthogonalEdgeStyle;curved=1;rounded=0;orthogonalLoop=1;jettySize=auto;html=1;exitX=0.5;exitY=1;exitDx=0;exitDy=0;entryX=0.5;entryY=0;entryDx=0;entryDy=0;strokeColor=default;align=center;verticalAlign=middle;fontFamily=Helvetica;fontSize=11;fontColor=default;labelBackgroundColor=default;endArrow=classic;" parent="g36YT8rhsYMa3pHuHRKw-1" source="eYmkSpLNEl5vK8yNRcOd-16" target="eYmkSpLNEl5vK8yNRcOd-22" edge="1">
          <mxGeometry relative="1" as="geometry" />
        </mxCell>
        <mxCell id="hXt-DK1lY1Fj1__o6OTE-2" style="edgeStyle=orthogonalEdgeStyle;curved=1;rounded=0;orthogonalLoop=1;jettySize=auto;html=1;exitX=0.5;exitY=1;exitDx=0;exitDy=0;entryX=0.5;entryY=0;entryDx=0;entryDy=0;entryPerimeter=0;strokeColor=default;align=center;verticalAlign=middle;fontFamily=Helvetica;fontSize=11;fontColor=default;labelBackgroundColor=default;endArrow=classic;" parent="g36YT8rhsYMa3pHuHRKw-1" source="eYmkSpLNEl5vK8yNRcOd-18" target="hXt-DK1lY1Fj1__o6OTE-1" edge="1">
          <mxGeometry relative="1" as="geometry" />
        </mxCell>
        <mxCell id="cQ50PkL29jziuRS4riEQ-1" value="Report&lt;br&gt;back to MTB" style="edgeStyle=orthogonalEdgeStyle;curved=1;rounded=0;orthogonalLoop=1;jettySize=auto;html=1;exitX=0;exitY=0.5;exitDx=0;exitDy=0;entryX=1;entryY=0.5;entryDx=0;entryDy=0;strokeColor=default;align=center;verticalAlign=middle;fontFamily=Helvetica;fontSize=11;fontColor=default;labelBackgroundColor=none;endArrow=classic;" parent="g36YT8rhsYMa3pHuHRKw-1" source="eYmkSpLNEl5vK8yNRcOd-22" target="eYmkSpLNEl5vK8yNRcOd-18" edge="1">
          <mxGeometry relative="1" as="geometry" />
        </mxCell>
        <mxCell id="cbSpkc_TnC8vaTYj-fXT-1" value="Rx revised as per sequencing results" style="rounded=0;whiteSpace=wrap;html=1;" parent="1" vertex="1">
          <mxGeometry x="50" y="-930" width="100" height="60" as="geometry" />
        </mxCell>
        <mxCell id="2Fz9pFnyrf1bxtLFpxsD-1" value="" style="edgeStyle=orthogonalEdgeStyle;rounded=0;orthogonalLoop=1;jettySize=auto;html=1;exitX=0;exitY=1;exitDx=0;exitDy=0;curved=1;entryX=0.5;entryY=0;entryDx=0;entryDy=0;" parent="1" source="PB774hIbTJgRv1Q6sqz4-1" target="cbSpkc_TnC8vaTYj-fXT-1" edge="1">
          <mxGeometry relative="1" as="geometry">
            <mxPoint x="140" y="-900" as="targetPoint" />
            <mxPoint x="650" y="-960" as="sourcePoint" />
            <Array as="points">
              <mxPoint x="660" y="-960" />
              <mxPoint x="100" y="-960" />
            </Array>
          </mxGeometry>
        </mxCell>
      </root>
    </mxGraphModel>
  </diagram>
</mxfile>
